<svg height="511.4" version="1.1" width="753.4" xmlns="http://www.w3.org/2000/svg" xmlns:xlink="http://www.w3.org/1999/xlink" style="overflow: hidden; position: relative; left: -0.799988px; top: -0.333336px;"><desc>Created with Raphaël 2.3.0</desc><defs></defs><rect x="0" y="0" width="753.4" height="511.4" rx="0" ry="0" fill="#ffffff" stroke="none" style=""></rect><rect x="233" y="216" width="86" height="292" rx="5" ry="5" fill="#205aa1" stroke="#ffffff" transform="matrix(1,0,0,1,-43,-146)" style="opacity: 0.05;" stroke-width="0" opacity="0.05"></rect><rect x="445" y="240" width="233" height="131" rx="5" ry="5" fill="#205aa1" stroke="#ffffff" transform="matrix(1,0,0,1,-116.5,-65.5)" style="opacity: 0.05;" stroke-width="0" opacity="0.05"></rect><rect x="176" y="365" width="152" height="199" rx="5" ry="5" fill="#205aa1" stroke="#ffffff" transform="matrix(1,0,0,1,-76,-99.5)" style="opacity: 0.05;" stroke-width="0" opacity="0.05"></rect><rect x="213" y="383" width="94" height="176" rx="5" ry="5" fill="#205aa1" stroke="#ffffff" transform="matrix(1,0,0,1,-47,-88)" style="opacity: 0.05;" stroke-width="0" opacity="0.05"></rect><rect x="236" y="178" width="56" height="28" rx="5" ry="5" fill="#205aa1" stroke="#ffffff" transform="matrix(1,0,0,1,-28,-14)" style="opacity: 0.05;" stroke-width="0" opacity="0.05"></rect><rect x="234" y="329" width="81" height="228" rx="5" ry="5" fill="#205aa1" stroke="#ffffff" transform="matrix(1,0,0,1,-40.5,-114)" style="opacity: 0.05;" stroke-width="0" opacity="0.05"></rect><rect x="525" y="390" width="245" height="40" rx="5" ry="5" fill="#205aa1" stroke="#ffffff" transform="matrix(1,0,0,1,-122.5,-20)" style="opacity: 0.05;" stroke-width="0" opacity="0.05"></rect><rect x="427" y="238" width="302" height="221" rx="5" ry="5" fill="#205aa1" stroke="#ffffff" transform="matrix(1,0,0,1,-151,-110.5)" style="opacity: 0.05;" stroke-width="0" opacity="0.05"></rect><rect x="588" y="291" width="295" height="190" rx="5" ry="5" fill="#205aa1" stroke="#ffffff" transform="matrix(1,0,0,1,-147.5,-95)" style="opacity: 0.05;" stroke-width="0" opacity="0.05"></rect><rect x="153" y="260" width="26" height="162" rx="5" ry="5" fill="#205aa1" stroke="#ffffff" transform="matrix(1,0,0,1,-13,-81)" style="opacity: 0.05;" stroke-width="0" opacity="0.05"></rect><rect x="249" y="352" width="120" height="78" rx="5" ry="5" fill="#205aa1" stroke="#ffffff" transform="matrix(1,0,0,1,-60,-39)" style="opacity: 0.05;" stroke-width="0" opacity="0.05"></rect><rect x="150" y="205" width="207" height="131" rx="5" ry="5" fill="#205aa1" stroke="#ffffff" transform="matrix(1,0,0,1,-103.5,-65.5)" style="opacity: 0.05;" stroke-width="0" opacity="0.05"></rect><rect x="162" y="209" width="34" height="77" rx="5" ry="5" fill="#205aa1" stroke="#ffffff" transform="matrix(1,0,0,1,-17,-38.5)" style="opacity: 0.05;" stroke-width="0" opacity="0.05"></rect><rect x="512" y="340" width="20" height="216" rx="5" ry="5" fill="#205aa1" stroke="#ffffff" transform="matrix(1,0,0,1,-10,-108)" style="opacity: 0.05;" stroke-width="0" opacity="0.05"></rect><rect x="395" y="240" width="223" height="258" rx="5" ry="5" fill="#205aa1" stroke="#ffffff" transform="matrix(1,0,0,1,-111.5,-129)" style="opacity: 0.05;" stroke-width="0" opacity="0.05"></rect><rect x="620" y="259" width="156" height="254" rx="5" ry="5" fill="#205aa1" stroke="#ffffff" transform="matrix(1,0,0,1,-78,-127)" style="opacity: 0.05;" stroke-width="0" opacity="0.05"></rect><rect x="372" y="322" width="277" height="113" rx="5" ry="5" fill="#205aa1" stroke="#ffffff" transform="matrix(1,0,0,1,-138.5,-56.5)" style="opacity: 0.05;" stroke-width="0" opacity="0.05"></rect><rect x="166" y="211" width="284" height="317" rx="5" ry="5" fill="#205aa1" stroke="#ffffff" transform="matrix(1,0,0,1,-142,-158.5)" style="opacity: 0.05;" stroke-width="0" opacity="0.05"></rect><rect x="530" y="361" width="90" height="296" rx="5" ry="5" fill="#205aa1" stroke="#ffffff" transform="matrix(1,0,0,1,-45,-148)" style="opacity: 0.05;" stroke-width="0" opacity="0.05"></rect><rect x="223" y="199" width="159" height="138" rx="5" ry="5" fill="#205aa1" stroke="#ffffff" transform="matrix(1,0,0,1,-79.5,-69)" style="opacity: 0.05;" stroke-width="0" opacity="0.05"></rect><rect x="590" y="218" width="48" height="43" rx="5" ry="5" fill="#205aa1" stroke="#ffffff" transform="matrix(1,0,0,1,-24,-21.5)" style="opacity: 0.05;" stroke-width="0" opacity="0.05"></rect><rect x="618" y="129" width="232" height="132" rx="5" ry="5" fill="#205aa1" stroke="#ffffff" transform="matrix(1,0,0,1,-116,-66)" style="opacity: 0.05;" stroke-width="0" opacity="0.05"></rect><rect x="164" y="193" width="136" height="55" rx="5" ry="5" fill="#205aa1" stroke="#ffffff" transform="matrix(1,0,0,1,-68,-27.5)" style="opacity: 0.05;" stroke-width="0" opacity="0.05"></rect><rect x="215" y="201" width="143" height="258" rx="5" ry="5" fill="#205aa1" stroke="#ffffff" transform="matrix(1,0,0,1,-71.5,-129)" style="opacity: 0.05;" stroke-width="0" opacity="0.05"></rect><rect x="469" y="166" width="167" height="114" rx="5" ry="5" fill="#205aa1" stroke="#ffffff" transform="matrix(1,0,0,1,-83.5,-57)" style="opacity: 0.05;" stroke-width="0" opacity="0.05"></rect><rect x="424" y="326" width="144" height="262" rx="5" ry="5" fill="#205aa1" stroke="#ffffff" transform="matrix(1,0,0,1,-72,-131)" style="opacity: 0.05;" stroke-width="0" opacity="0.05"></rect><rect x="575" y="123" width="75" height="299" rx="5" ry="5" fill="#205aa1" stroke="#ffffff" transform="matrix(1,0,0,1,-37.5,-149.5)" style="opacity: 0.05;" stroke-width="0" opacity="0.05"></rect><rect x="563" y="217" width="52" height="290" rx="5" ry="5" fill="#205aa1" stroke="#ffffff" transform="matrix(1,0,0,1,-26,-145)" style="opacity: 0.05;" stroke-width="0" opacity="0.05"></rect><rect x="442" y="151" width="118" height="198" rx="5" ry="5" fill="#205aa1" stroke="#ffffff" transform="matrix(1,0,0,1,-59,-99)" style="opacity: 0.05;" stroke-width="0" opacity="0.05"></rect><rect x="252" y="371" width="98" height="44" rx="5" ry="5" fill="#205aa1" stroke="#ffffff" transform="matrix(1,0,0,1,-49,-22)" style="opacity: 0.05;" stroke-width="0" opacity="0.05"></rect><rect x="287" y="299" width="80" height="317" rx="5" ry="5" fill="#205aa1" stroke="#ffffff" transform="matrix(1,0,0,1,-40,-158.5)" style="opacity: 0.05;" stroke-width="0" opacity="0.05"></rect><rect x="129" y="210" width="307" height="275" rx="5" ry="5" fill="#205aa1" stroke="#ffffff" transform="matrix(1,0,0,1,-153.5,-137.5)" style="opacity: 0.05;" stroke-width="0" opacity="0.05"></rect></svg>